ISO-10303-21;
HEADER;
/* Generated by software containing ST-Developer
 * from STEP Tools, Inc. (www.steptools.com) 
 */
/* OPTION: using custom renumber hook */

FILE_DESCRIPTION(
/* description */ ('STEP AP242 Edition 2',
'CAx-IF Rec.Pracs.---Representation and Presentation of Product Manufa
cturing Information (PMI)---4.0---2014-10-13',
'CAx-IF Rec.Pracs.---3D Tessellated Geometry---0.4---2014-09-14','2;1',
'CAx-IF Rec.Pracs.---User Defined Attributes---1.5---2016-08-15'),
/* implementation_level */ '2;1');

FILE_NAME(
/* name */ 'Case',
/* time_stamp */ '2026-08-31T02:32:24Z',
/* author */ (''),
/* organization */ (''),
/* preprocessor_version */ 'ST-DEVELOPER v20',
/* originating_system */ 'ONSHAPE BY PTC INC, 1.220',
/* authorisation */ '  ');

FILE_SCHEMA (('AP242_MANAGED_MODEL_BASED_3D_ENGINEERING_MIM_LF { 1 0 10303 442 3 1 4 }'));
ENDSEC;

DATA;
#10=SHAPE_REPRESENTATION_RELATIONSHIP('','',#551,#11);
#11=ADVANCED_BREP_SHAPE_REPRESENTATION('',(#549),#861);
#12=ORIENTED_EDGE('',*,*,#156,.T.);
#13=ORIENTED_EDGE('',*,*,#157,.T.);
#14=ORIENTED_EDGE('',*,*,#158,.F.);
#15=ORIENTED_EDGE('',*,*,#159,.F.);
#16=ORIENTED_EDGE('',*,*,#160,.T.);
#17=ORIENTED_EDGE('',*,*,#161,.T.);
#18=ORIENTED_EDGE('',*,*,#162,.F.);
#19=ORIENTED_EDGE('',*,*,#163,.T.);
#20=ORIENTED_EDGE('',*,*,#164,.T.);
#21=ORIENTED_EDGE('',*,*,#165,.F.);
#22=ORIENTED_EDGE('',*,*,#166,.F.);
#23=ORIENTED_EDGE('',*,*,#167,.F.);
#24=ORIENTED_EDGE('',*,*,#168,.T.);
#25=ORIENTED_EDGE('',*,*,#169,.T.);
#26=ORIENTED_EDGE('',*,*,#170,.T.);
#27=ORIENTED_EDGE('',*,*,#171,.T.);
#28=ORIENTED_EDGE('',*,*,#172,.T.);
#29=ORIENTED_EDGE('',*,*,#173,.F.);
#30=ORIENTED_EDGE('',*,*,#164,.F.);
#31=ORIENTED_EDGE('',*,*,#174,.T.);
#32=ORIENTED_EDGE('',*,*,#175,.T.);
#33=ORIENTED_EDGE('',*,*,#176,.T.);
#34=ORIENTED_EDGE('',*,*,#177,.F.);
#35=ORIENTED_EDGE('',*,*,#178,.F.);
#36=ORIENTED_EDGE('',*,*,#179,.T.);
#37=ORIENTED_EDGE('',*,*,#180,.F.);
#38=ORIENTED_EDGE('',*,*,#170,.F.);
#39=ORIENTED_EDGE('',*,*,#181,.T.);
#40=ORIENTED_EDGE('',*,*,#182,.F.);
#41=ORIENTED_EDGE('',*,*,#183,.T.);
#42=ORIENTED_EDGE('',*,*,#184,.T.);
#43=ORIENTED_EDGE('',*,*,#185,.F.);
#44=ORIENTED_EDGE('',*,*,#186,.F.);
#45=ORIENTED_EDGE('',*,*,#166,.T.);
#46=ORIENTED_EDGE('',*,*,#187,.T.);
#47=ORIENTED_EDGE('',*,*,#188,.F.);
#48=ORIENTED_EDGE('',*,*,#189,.F.);
#49=ORIENTED_EDGE('',*,*,#162,.T.);
#50=ORIENTED_EDGE('',*,*,#190,.T.);
#51=ORIENTED_EDGE('',*,*,#191,.F.);
#52=ORIENTED_EDGE('',*,*,#192,.T.);
#53=ORIENTED_EDGE('',*,*,#174,.F.);
#54=ORIENTED_EDGE('',*,*,#163,.F.);
#55=ORIENTED_EDGE('',*,*,#189,.T.);
#56=ORIENTED_EDGE('',*,*,#193,.F.);
#57=ORIENTED_EDGE('',*,*,#187,.F.);
#58=ORIENTED_EDGE('',*,*,#165,.T.);
#59=ORIENTED_EDGE('',*,*,#173,.T.);
#60=ORIENTED_EDGE('',*,*,#188,.T.);
#61=ORIENTED_EDGE('',*,*,#193,.T.);
#62=ORIENTED_EDGE('',*,*,#172,.F.);
#63=ORIENTED_EDGE('',*,*,#192,.F.);
#64=ORIENTED_EDGE('',*,*,#168,.F.);
#65=ORIENTED_EDGE('',*,*,#194,.T.);
#66=ORIENTED_EDGE('',*,*,#195,.T.);
#67=ORIENTED_EDGE('',*,*,#196,.F.);
#68=ORIENTED_EDGE('',*,*,#160,.F.);
#69=ORIENTED_EDGE('',*,*,#197,.T.);
#70=ORIENTED_EDGE('',*,*,#198,.T.);
#71=ORIENTED_EDGE('',*,*,#199,.F.);
#72=ORIENTED_EDGE('',*,*,#200,.F.);
#73=ORIENTED_EDGE('',*,*,#201,.T.);
#74=ORIENTED_EDGE('',*,*,#202,.T.);
#75=ORIENTED_EDGE('',*,*,#203,.F.);
#76=ORIENTED_EDGE('',*,*,#204,.T.);
#77=ORIENTED_EDGE('',*,*,#181,.F.);
#78=ORIENTED_EDGE('',*,*,#169,.F.);
#79=ORIENTED_EDGE('',*,*,#199,.T.);
#80=ORIENTED_EDGE('',*,*,#205,.F.);
#81=ORIENTED_EDGE('',*,*,#206,.T.);
#82=ORIENTED_EDGE('',*,*,#207,.T.);
#83=ORIENTED_EDGE('',*,*,#208,.F.);
#84=ORIENTED_EDGE('',*,*,#209,.T.);
#85=ORIENTED_EDGE('',*,*,#197,.F.);
#86=ORIENTED_EDGE('',*,*,#171,.F.);
#87=ORIENTED_EDGE('',*,*,#180,.T.);
#88=ORIENTED_EDGE('',*,*,#198,.F.);
#89=ORIENTED_EDGE('',*,*,#209,.F.);
#90=ORIENTED_EDGE('',*,*,#179,.F.);
#91=ORIENTED_EDGE('',*,*,#204,.F.);
#92=ORIENTED_EDGE('',*,*,#182,.T.);
#93=ORIENTED_EDGE('',*,*,#210,.T.);
#94=ORIENTED_EDGE('',*,*,#175,.F.);
#95=ORIENTED_EDGE('',*,*,#211,.F.);
#96=ORIENTED_EDGE('',*,*,#211,.T.);
#97=ORIENTED_EDGE('',*,*,#178,.T.);
#98=ORIENTED_EDGE('',*,*,#212,.F.);
#99=ORIENTED_EDGE('',*,*,#183,.F.);
#100=ORIENTED_EDGE('',*,*,#212,.T.);
#101=ORIENTED_EDGE('',*,*,#177,.T.);
#102=ORIENTED_EDGE('',*,*,#213,.F.);
#103=ORIENTED_EDGE('',*,*,#184,.F.);
#104=ORIENTED_EDGE('',*,*,#185,.T.);
#105=ORIENTED_EDGE('',*,*,#213,.T.);
#106=ORIENTED_EDGE('',*,*,#176,.F.);
#107=ORIENTED_EDGE('',*,*,#210,.F.);
#108=ORIENTED_EDGE('',*,*,#214,.T.);
#109=ORIENTED_EDGE('',*,*,#191,.T.);
#110=ORIENTED_EDGE('',*,*,#215,.F.);
#111=ORIENTED_EDGE('',*,*,#195,.F.);
#112=ORIENTED_EDGE('',*,*,#167,.T.);
#113=ORIENTED_EDGE('',*,*,#186,.T.);
#114=ORIENTED_EDGE('',*,*,#214,.F.);
#115=ORIENTED_EDGE('',*,*,#194,.F.);
#116=ORIENTED_EDGE('',*,*,#196,.T.);
#117=ORIENTED_EDGE('',*,*,#215,.T.);
#118=ORIENTED_EDGE('',*,*,#190,.F.);
#119=ORIENTED_EDGE('',*,*,#161,.F.);
#120=ORIENTED_EDGE('',*,*,#201,.F.);
#121=ORIENTED_EDGE('',*,*,#216,.F.);
#122=ORIENTED_EDGE('',*,*,#217,.T.);
#123=ORIENTED_EDGE('',*,*,#218,.T.);
#124=ORIENTED_EDGE('',*,*,#200,.T.);
#125=ORIENTED_EDGE('',*,*,#219,.T.);
#126=ORIENTED_EDGE('',*,*,#220,.F.);
#127=ORIENTED_EDGE('',*,*,#216,.T.);
#128=ORIENTED_EDGE('',*,*,#221,.F.);
#129=ORIENTED_EDGE('',*,*,#202,.F.);
#130=ORIENTED_EDGE('',*,*,#218,.F.);
#131=ORIENTED_EDGE('',*,*,#222,.T.);
#132=ORIENTED_EDGE('',*,*,#223,.F.);
#133=ORIENTED_EDGE('',*,*,#222,.F.);
#134=ORIENTED_EDGE('',*,*,#217,.F.);
#135=ORIENTED_EDGE('',*,*,#220,.T.);
#136=ORIENTED_EDGE('',*,*,#219,.F.);
#137=ORIENTED_EDGE('',*,*,#203,.T.);
#138=ORIENTED_EDGE('',*,*,#221,.T.);
#139=ORIENTED_EDGE('',*,*,#223,.T.);
#140=ORIENTED_EDGE('',*,*,#206,.F.);
#141=ORIENTED_EDGE('',*,*,#224,.F.);
#142=ORIENTED_EDGE('',*,*,#159,.T.);
#143=ORIENTED_EDGE('',*,*,#225,.T.);
#144=ORIENTED_EDGE('',*,*,#205,.T.);
#145=ORIENTED_EDGE('',*,*,#226,.T.);
#146=ORIENTED_EDGE('',*,*,#156,.F.);
#147=ORIENTED_EDGE('',*,*,#224,.T.);
#148=ORIENTED_EDGE('',*,*,#227,.F.);
#149=ORIENTED_EDGE('',*,*,#207,.F.);
#150=ORIENTED_EDGE('',*,*,#225,.F.);
#151=ORIENTED_EDGE('',*,*,#158,.T.);
#152=ORIENTED_EDGE('',*,*,#227,.T.);
#153=ORIENTED_EDGE('',*,*,#157,.F.);
#154=ORIENTED_EDGE('',*,*,#226,.F.);
#155=ORIENTED_EDGE('',*,*,#208,.T.);
#156=EDGE_CURVE('',#228,#229,#276,.T.);
#157=EDGE_CURVE('',#229,#230,#277,.T.);
#158=EDGE_CURVE('',#231,#230,#278,.T.);
#159=EDGE_CURVE('',#228,#231,#279,.T.);
#160=EDGE_CURVE('',#232,#233,#280,.T.);
#161=EDGE_CURVE('',#233,#234,#281,.T.);
#162=EDGE_CURVE('',#235,#234,#282,.T.);
#163=EDGE_CURVE('',#235,#236,#283,.T.);
#164=EDGE_CURVE('',#236,#237,#284,.T.);
#165=EDGE_CURVE('',#238,#237,#285,.T.);
#166=EDGE_CURVE('',#239,#238,#286,.T.);
#167=EDGE_CURVE('',#240,#239,#287,.T.);
#168=EDGE_CURVE('',#240,#241,#288,.T.);
#169=EDGE_CURVE('',#241,#242,#289,.T.);
#170=EDGE_CURVE('',#242,#243,#290,.T.);
#171=EDGE_CURVE('',#243,#232,#291,.T.);
#172=EDGE_CURVE('',#244,#245,#292,.T.);
#173=EDGE_CURVE('',#237,#245,#293,.T.);
#174=EDGE_CURVE('',#236,#244,#294,.T.);
#175=EDGE_CURVE('',#246,#247,#295,.T.);
#176=EDGE_CURVE('',#247,#248,#296,.T.);
#177=EDGE_CURVE('',#249,#248,#297,.T.);
#178=EDGE_CURVE('',#246,#249,#298,.T.);
#179=EDGE_CURVE('',#250,#251,#299,.T.);
#180=EDGE_CURVE('',#243,#251,#300,.T.);
#181=EDGE_CURVE('',#242,#250,#301,.T.);
#182=EDGE_CURVE('',#252,#253,#302,.T.);
#183=EDGE_CURVE('',#252,#254,#303,.T.);
#184=EDGE_CURVE('',#254,#255,#304,.T.);
#185=EDGE_CURVE('',#253,#255,#305,.T.);
#186=EDGE_CURVE('',#239,#256,#306,.T.);
#187=EDGE_CURVE('',#238,#257,#307,.T.);
#188=EDGE_CURVE('',#258,#257,#308,.T.);
#189=EDGE_CURVE('',#235,#258,#309,.T.);
#190=EDGE_CURVE('',#234,#259,#310,.T.);
#191=EDGE_CURVE('',#256,#259,#311,.T.);
#192=EDGE_CURVE('',#258,#244,#312,.T.);
#193=EDGE_CURVE('',#257,#245,#313,.T.);
#194=EDGE_CURVE('',#240,#260,#314,.T.);
#195=EDGE_CURVE('',#260,#261,#315,.T.);
#196=EDGE_CURVE('',#233,#261,#316,.T.);
#197=EDGE_CURVE('',#232,#262,#317,.T.);
#198=EDGE_CURVE('',#262,#263,#318,.T.);
#199=EDGE_CURVE('',#241,#263,#319,.T.);
#200=EDGE_CURVE('',#264,#265,#320,.T.);
#201=EDGE_CURVE('',#264,#266,#321,.T.);
#202=EDGE_CURVE('',#266,#267,#322,.T.);
#203=EDGE_CURVE('',#265,#267,#323,.T.);
#204=EDGE_CURVE('',#263,#250,#324,.T.);
#205=EDGE_CURVE('',#268,#269,#325,.T.);
#206=EDGE_CURVE('',#268,#270,#326,.T.);
#207=EDGE_CURVE('',#270,#271,#327,.T.);
#208=EDGE_CURVE('',#269,#271,#328,.T.);
#209=EDGE_CURVE('',#251,#262,#329,.T.);
#210=EDGE_CURVE('',#253,#247,#330,.T.);
#211=EDGE_CURVE('',#252,#246,#331,.T.);
#212=EDGE_CURVE('',#254,#249,#332,.T.);
#213=EDGE_CURVE('',#255,#248,#333,.T.);
#214=EDGE_CURVE('',#260,#256,#334,.T.);
#215=EDGE_CURVE('',#261,#259,#335,.T.);
#216=EDGE_CURVE('',#272,#264,#336,.T.);
#217=EDGE_CURVE('',#272,#273,#337,.T.);
#218=EDGE_CURVE('',#273,#266,#338,.T.);
#219=EDGE_CURVE('',#265,#274,#339,.T.);
#220=EDGE_CURVE('',#272,#274,#340,.T.);
#221=EDGE_CURVE('',#267,#275,#341,.T.);
#222=EDGE_CURVE('',#273,#275,#342,.T.);
#223=EDGE_CURVE('',#275,#274,#343,.T.);
#224=EDGE_CURVE('',#228,#268,#344,.T.);
#225=EDGE_CURVE('',#231,#270,#345,.T.);
#226=EDGE_CURVE('',#269,#229,#346,.T.);
#227=EDGE_CURVE('',#271,#230,#347,.T.);
#228=VERTEX_POINT('',#714);
#229=VERTEX_POINT('',#715);
#230=VERTEX_POINT('',#717);
#231=VERTEX_POINT('',#719);
#232=VERTEX_POINT('',#723);
#233=VERTEX_POINT('',#724);
#234=VERTEX_POINT('',#726);
#235=VERTEX_POINT('',#728);
#236=VERTEX_POINT('',#730);
#237=VERTEX_POINT('',#732);
#238=VERTEX_POINT('',#734);
#239=VERTEX_POINT('',#736);
#240=VERTEX_POINT('',#738);
#241=VERTEX_POINT('',#740);
#242=VERTEX_POINT('',#742);
#243=VERTEX_POINT('',#744);
#244=VERTEX_POINT('',#748);
#245=VERTEX_POINT('',#749);
#246=VERTEX_POINT('',#753);
#247=VERTEX_POINT('',#754);
#248=VERTEX_POINT('',#756);
#249=VERTEX_POINT('',#758);
#250=VERTEX_POINT('',#762);
#251=VERTEX_POINT('',#763);
#252=VERTEX_POINT('',#767);
#253=VERTEX_POINT('',#768);
#254=VERTEX_POINT('',#770);
#255=VERTEX_POINT('',#772);
#256=VERTEX_POINT('',#776);
#257=VERTEX_POINT('',#778);
#258=VERTEX_POINT('',#780);
#259=VERTEX_POINT('',#783);
#260=VERTEX_POINT('',#792);
#261=VERTEX_POINT('',#794);
#262=VERTEX_POINT('',#797);
#263=VERTEX_POINT('',#799);
#264=VERTEX_POINT('',#803);
#265=VERTEX_POINT('',#804);
#266=VERTEX_POINT('',#806);
#267=VERTEX_POINT('',#808);
#268=VERTEX_POINT('',#813);
#269=VERTEX_POINT('',#814);
#270=VERTEX_POINT('',#816);
#271=VERTEX_POINT('',#818);
#272=VERTEX_POINT('',#837);
#273=VERTEX_POINT('',#839);
#274=VERTEX_POINT('',#843);
#275=VERTEX_POINT('',#847);
#276=LINE('',#713,#348);
#277=LINE('',#716,#349);
#278=LINE('',#718,#350);
#279=LINE('',#720,#351);
#280=LINE('',#722,#352);
#281=LINE('',#725,#353);
#282=LINE('',#727,#354);
#283=LINE('',#729,#355);
#284=LINE('',#731,#356);
#285=LINE('',#733,#357);
#286=LINE('',#735,#358);
#287=LINE('',#737,#359);
#288=LINE('',#739,#360);
#289=LINE('',#741,#361);
#290=LINE('',#743,#362);
#291=LINE('',#745,#363);
#292=LINE('',#747,#364);
#293=LINE('',#750,#365);
#294=LINE('',#751,#366);
#295=LINE('',#752,#367);
#296=LINE('',#755,#368);
#297=LINE('',#757,#369);
#298=LINE('',#759,#370);
#299=LINE('',#761,#371);
#300=LINE('',#764,#372);
#301=LINE('',#765,#373);
#302=LINE('',#766,#374);
#303=LINE('',#769,#375);
#304=LINE('',#771,#376);
#305=LINE('',#773,#377);
#306=LINE('',#775,#378);
#307=LINE('',#777,#379);
#308=LINE('',#779,#380);
#309=LINE('',#781,#381);
#310=LINE('',#782,#382);
#311=LINE('',#784,#383);
#312=LINE('',#786,#384);
#313=LINE('',#788,#385);
#314=LINE('',#791,#386);
#315=LINE('',#793,#387);
#316=LINE('',#795,#388);
#317=LINE('',#796,#389);
#318=LINE('',#798,#390);
#319=LINE('',#800,#391);
#320=LINE('',#802,#392);
#321=LINE('',#805,#393);
#322=LINE('',#807,#394);
#323=LINE('',#809,#395);
#324=LINE('',#810,#396);
#325=LINE('',#812,#397);
#326=LINE('',#815,#398);
#327=LINE('',#817,#399);
#328=LINE('',#819,#400);
#329=LINE('',#820,#401);
#330=LINE('',#823,#402);
#331=LINE('',#824,#403);
#332=LINE('',#826,#404);
#333=LINE('',#828,#405);
#334=LINE('',#831,#406);
#335=LINE('',#832,#407);
#336=LINE('',#836,#408);
#337=LINE('',#838,#409);
#338=LINE('',#840,#410);
#339=LINE('',#842,#411);
#340=LINE('',#844,#412);
#341=LINE('',#846,#413);
#342=LINE('',#848,#414);
#343=LINE('',#850,#415);
#344=LINE('',#853,#416);
#345=LINE('',#854,#417);
#346=LINE('',#856,#418);
#347=LINE('',#858,#419);
#348=VECTOR('',#585,1.);
#349=VECTOR('',#586,1.);
#350=VECTOR('',#587,1.);
#351=VECTOR('',#588,1.);
#352=VECTOR('',#591,1.);
#353=VECTOR('',#592,1.);
#354=VECTOR('',#593,1.);
#355=VECTOR('',#594,1.);
#356=VECTOR('',#595,1.);
#357=VECTOR('',#596,1.);
#358=VECTOR('',#597,1.);
#359=VECTOR('',#598,1.);
#360=VECTOR('',#599,1.);
#361=VECTOR('',#600,1.);
#362=VECTOR('',#601,1.);
#363=VECTOR('',#602,1.);
#364=VECTOR('',#605,1.);
#365=VECTOR('',#606,1.);
#366=VECTOR('',#607,1.);
#367=VECTOR('',#608,1.);
#368=VECTOR('',#609,1.);
#369=VECTOR('',#610,1.);
#370=VECTOR('',#611,1.);
#371=VECTOR('',#614,1.);
#372=VECTOR('',#615,1.);
#373=VECTOR('',#616,1.);
#374=VECTOR('',#617,1.);
#375=VECTOR('',#618,1.);
#376=VECTOR('',#619,1.);
#377=VECTOR('',#620,1.);
#378=VECTOR('',#623,1.);
#379=VECTOR('',#624,1.);
#380=VECTOR('',#625,1.);
#381=VECTOR('',#626,1.);
#382=VECTOR('',#627,1.);
#383=VECTOR('',#628,1.);
#384=VECTOR('',#631,1.);
#385=VECTOR('',#634,1.);
#386=VECTOR('',#639,1.);
#387=VECTOR('',#640,1.);
#388=VECTOR('',#641,1.);
#389=VECTOR('',#642,1.);
#390=VECTOR('',#643,1.);
#391=VECTOR('',#644,1.);
#392=VECTOR('',#647,1.);
#393=VECTOR('',#648,1.);
#394=VECTOR('',#649,1.);
#395=VECTOR('',#650,1.);
#396=VECTOR('',#651,1.);
#397=VECTOR('',#654,1.);
#398=VECTOR('',#655,1.);
#399=VECTOR('',#656,1.);
#400=VECTOR('',#657,1.);
#401=VECTOR('',#658,1.);
#402=VECTOR('',#663,1.);
#403=VECTOR('',#664,1.);
#404=VECTOR('',#667,1.);
#405=VECTOR('',#670,1.);
#406=VECTOR('',#675,1.);
#407=VECTOR('',#676,1.);
#408=VECTOR('',#683,1.);
#409=VECTOR('',#684,1.);
#410=VECTOR('',#685,1.);
#411=VECTOR('',#688,1.);
#412=VECTOR('',#689,1.);
#413=VECTOR('',#692,1.);
#414=VECTOR('',#693,1.);
#415=VECTOR('',#696,1.);
#416=VECTOR('',#701,1.);
#417=VECTOR('',#702,1.);
#418=VECTOR('',#705,1.);
#419=VECTOR('',#708,1.);
#420=EDGE_LOOP('',(#12,#13,#14,#15));
#421=EDGE_LOOP('',(#16,#17,#18,#19,#20,#21,#22,#23,#24,#25,#26,#27));
#422=EDGE_LOOP('',(#28,#29,#30,#31));
#423=EDGE_LOOP('',(#32,#33,#34,#35));
#424=EDGE_LOOP('',(#36,#37,#38,#39));
#425=EDGE_LOOP('',(#40,#41,#42,#43));
#426=EDGE_LOOP('',(#44,#45,#46,#47,#48,#49,#50,#51));
#427=EDGE_LOOP('',(#52,#53,#54,#55));
#428=EDGE_LOOP('',(#56,#57,#58,#59));
#429=EDGE_LOOP('',(#60,#61,#62,#63));
#430=EDGE_LOOP('',(#64,#65,#66,#67,#68,#69,#70,#71));
#431=EDGE_LOOP('',(#72,#73,#74,#75));
#432=EDGE_LOOP('',(#76,#77,#78,#79));
#433=EDGE_LOOP('',(#80,#81,#82,#83));
#434=EDGE_LOOP('',(#84,#85,#86,#87));
#435=EDGE_LOOP('',(#88,#89,#90,#91));
#436=EDGE_LOOP('',(#92,#93,#94,#95));
#437=EDGE_LOOP('',(#96,#97,#98,#99));
#438=EDGE_LOOP('',(#100,#101,#102,#103));
#439=EDGE_LOOP('',(#104,#105,#106,#107));
#440=EDGE_LOOP('',(#108,#109,#110,#111));
#441=EDGE_LOOP('',(#112,#113,#114,#115));
#442=EDGE_LOOP('',(#116,#117,#118,#119));
#443=EDGE_LOOP('',(#120,#121,#122,#123));
#444=EDGE_LOOP('',(#124,#125,#126,#127));
#445=EDGE_LOOP('',(#128,#129,#130,#131));
#446=EDGE_LOOP('',(#132,#133,#134,#135));
#447=EDGE_LOOP('',(#136,#137,#138,#139));
#448=EDGE_LOOP('',(#140,#141,#142,#143));
#449=EDGE_LOOP('',(#144,#145,#146,#147));
#450=EDGE_LOOP('',(#148,#149,#150,#151));
#451=EDGE_LOOP('',(#152,#153,#154,#155));
#452=FACE_BOUND('',#420,.T.);
#453=FACE_BOUND('',#421,.T.);
#454=FACE_BOUND('',#422,.T.);
#455=FACE_BOUND('',#423,.T.);
#456=FACE_BOUND('',#424,.T.);
#457=FACE_BOUND('',#425,.T.);
#458=FACE_BOUND('',#426,.T.);
#459=FACE_BOUND('',#427,.T.);
#460=FACE_BOUND('',#428,.T.);
#461=FACE_BOUND('',#429,.T.);
#462=FACE_BOUND('',#430,.T.);
#463=FACE_BOUND('',#431,.T.);
#464=FACE_BOUND('',#432,.T.);
#465=FACE_BOUND('',#433,.T.);
#466=FACE_BOUND('',#434,.T.);
#467=FACE_BOUND('',#435,.T.);
#468=FACE_BOUND('',#436,.T.);
#469=FACE_BOUND('',#437,.T.);
#470=FACE_BOUND('',#438,.T.);
#471=FACE_BOUND('',#439,.T.);
#472=FACE_BOUND('',#440,.T.);
#473=FACE_BOUND('',#441,.T.);
#474=FACE_BOUND('',#442,.T.);
#475=FACE_BOUND('',#443,.T.);
#476=FACE_BOUND('',#444,.T.);
#477=FACE_BOUND('',#445,.T.);
#478=FACE_BOUND('',#446,.T.);
#479=FACE_BOUND('',#447,.T.);
#480=FACE_BOUND('',#448,.T.);
#481=FACE_BOUND('',#449,.T.);
#482=FACE_BOUND('',#450,.T.);
#483=FACE_BOUND('',#451,.T.);
#484=PLANE('',#553);
#485=PLANE('',#554);
#486=PLANE('',#555);
#487=PLANE('',#556);
#488=PLANE('',#557);
#489=PLANE('',#558);
#490=PLANE('',#559);
#491=PLANE('',#560);
#492=PLANE('',#561);
#493=PLANE('',#562);
#494=PLANE('',#563);
#495=PLANE('',#564);
#496=PLANE('',#565);
#497=PLANE('',#566);
#498=PLANE('',#567);
#499=PLANE('',#568);
#500=PLANE('',#569);
#501=PLANE('',#570);
#502=PLANE('',#571);
#503=PLANE('',#572);
#504=PLANE('',#573);
#505=PLANE('',#574);
#506=PLANE('',#575);
#507=PLANE('',#576);
#508=PLANE('',#577);
#509=PLANE('',#578);
#510=PLANE('',#579);
#511=PLANE('',#580);
#512=ADVANCED_FACE('',(#452),#484,.T.);
#513=ADVANCED_FACE('',(#453),#485,.T.);
#514=ADVANCED_FACE('',(#454,#455),#486,.F.);
#515=ADVANCED_FACE('',(#456,#457),#487,.F.);
#516=ADVANCED_FACE('',(#458),#488,.T.);
#517=ADVANCED_FACE('',(#459),#489,.F.);
#518=ADVANCED_FACE('',(#460),#490,.T.);
#519=ADVANCED_FACE('',(#461),#491,.F.);
#520=ADVANCED_FACE('',(#462),#492,.F.);
#521=ADVANCED_FACE('',(#463,#464),#493,.F.);
#522=ADVANCED_FACE('',(#465,#466),#494,.F.);
#523=ADVANCED_FACE('',(#467),#495,.T.);
#524=ADVANCED_FACE('',(#468),#496,.T.);
#525=ADVANCED_FACE('',(#469),#497,.F.);
#526=ADVANCED_FACE('',(#470),#498,.F.);
#527=ADVANCED_FACE('',(#471),#499,.T.);
#528=ADVANCED_FACE('',(#472),#500,.F.);
#529=ADVANCED_FACE('',(#473),#501,.F.);
#530=ADVANCED_FACE('',(#474),#502,.T.);
#531=ADVANCED_FACE('',(#475),#503,.T.);
#532=ADVANCED_FACE('',(#476),#504,.F.);
#533=ADVANCED_FACE('',(#477),#505,.T.);
#534=ADVANCED_FACE('',(#478),#506,.T.);
#535=ADVANCED_FACE('',(#479),#507,.T.);
#536=ADVANCED_FACE('',(#480),#508,.T.);
#537=ADVANCED_FACE('',(#481),#509,.F.);
#538=ADVANCED_FACE('',(#482),#510,.T.);
#539=ADVANCED_FACE('',(#483),#511,.F.);
#540=CLOSED_SHELL('',(#512,#513,#514,#515,#516,#517,#518,#519,#520,#521,
#522,#523,#524,#525,#526,#527,#528,#529,#530,#531,#532,#533,#534,#535,#536,
#537,#538,#539));
#541=STYLED_ITEM('',(#542),#549);
#542=PRESENTATION_STYLE_ASSIGNMENT((#543));
#543=SURFACE_STYLE_USAGE(.BOTH.,#544);
#544=SURFACE_SIDE_STYLE('',(#545));
#545=SURFACE_STYLE_FILL_AREA(#546);
#546=FILL_AREA_STYLE('',(#547));
#547=FILL_AREA_STYLE_COLOUR('',#548);
#548=COLOUR_RGB('',0.615686274509804,0.811764705882353,0.929411764705882);
#549=MANIFOLD_SOLID_BREP('Part 1',#540);
#550=SHAPE_DEFINITION_REPRESENTATION(#866,#551);
#551=SHAPE_REPRESENTATION('Part 1',(#552),#861);
#552=AXIS2_PLACEMENT_3D('',#711,#581,#582);
#553=AXIS2_PLACEMENT_3D('',#712,#583,#584);
#554=AXIS2_PLACEMENT_3D('',#721,#589,#590);
#555=AXIS2_PLACEMENT_3D('',#746,#603,#604);
#556=AXIS2_PLACEMENT_3D('',#760,#612,#613);
#557=AXIS2_PLACEMENT_3D('',#774,#621,#622);
#558=AXIS2_PLACEMENT_3D('',#785,#629,#630);
#559=AXIS2_PLACEMENT_3D('',#787,#632,#633);
#560=AXIS2_PLACEMENT_3D('',#789,#635,#636);
#561=AXIS2_PLACEMENT_3D('',#790,#637,#638);
#562=AXIS2_PLACEMENT_3D('',#801,#645,#646);
#563=AXIS2_PLACEMENT_3D('',#811,#652,#653);
#564=AXIS2_PLACEMENT_3D('',#821,#659,#660);
#565=AXIS2_PLACEMENT_3D('',#822,#661,#662);
#566=AXIS2_PLACEMENT_3D('',#825,#665,#666);
#567=AXIS2_PLACEMENT_3D('',#827,#668,#669);
#568=AXIS2_PLACEMENT_3D('',#829,#671,#672);
#569=AXIS2_PLACEMENT_3D('',#830,#673,#674);
#570=AXIS2_PLACEMENT_3D('',#833,#677,#678);
#571=AXIS2_PLACEMENT_3D('',#834,#679,#680);
#572=AXIS2_PLACEMENT_3D('',#835,#681,#682);
#573=AXIS2_PLACEMENT_3D('',#841,#686,#687);
#574=AXIS2_PLACEMENT_3D('',#845,#690,#691);
#575=AXIS2_PLACEMENT_3D('',#849,#694,#695);
#576=AXIS2_PLACEMENT_3D('',#851,#697,#698);
#577=AXIS2_PLACEMENT_3D('',#852,#699,#700);
#578=AXIS2_PLACEMENT_3D('',#855,#703,#704);
#579=AXIS2_PLACEMENT_3D('',#857,#706,#707);
#580=AXIS2_PLACEMENT_3D('',#859,#709,#710);
#581=DIRECTION('',(0.,0.,1.));
#582=DIRECTION('',(1.,0.,0.));
#583=DIRECTION('',(1.,2.4389785250992E-16,0.));
#584=DIRECTION('',(-2.4389785250992E-16,1.,0.));
#585=DIRECTION('',(0.,0.,-1.));
#586=DIRECTION('',(-2.4389785250992E-16,1.,0.));
#587=DIRECTION('',(0.,0.,-1.));
#588=DIRECTION('',(-2.4389785250992E-16,1.,0.));
#589=DIRECTION('',(0.,0.,1.));
#590=DIRECTION('',(1.,0.,0.));
#591=DIRECTION('',(1.,0.,0.));
#592=DIRECTION('',(0.,1.,0.));
#593=DIRECTION('',(1.,0.,0.));
#594=DIRECTION('',(0.,-1.,0.));
#595=DIRECTION('',(1.,0.,0.));
#596=DIRECTION('',(0.,-1.,0.));
#597=DIRECTION('',(1.,0.,0.));
#598=DIRECTION('',(0.,1.,0.));
#599=DIRECTION('',(1.,0.,0.));
#600=DIRECTION('',(2.4389785250992E-16,-1.,0.));
#601=DIRECTION('',(-1.,-1.20466908053945E-16,0.));
#602=DIRECTION('',(-2.4389785250992E-16,1.,0.));
#603=DIRECTION('',(0.,1.,0.));
#604=DIRECTION('',(0.,0.,1.));
#605=DIRECTION('',(1.,0.,0.));
#606=DIRECTION('',(0.,0.,-1.));
#607=DIRECTION('',(0.,0.,-1.));
#608=DIRECTION('',(1.,0.,0.));
#609=DIRECTION('',(5.42101086242752E-17,0.,-1.));
#610=DIRECTION('',(1.,0.,0.));
#611=DIRECTION('',(0.,0.,-1.));
#612=DIRECTION('',(1.20466908053945E-16,-1.,0.));
#613=DIRECTION('',(1.,1.20466908053945E-16,0.));
#614=DIRECTION('',(-1.,-1.20466908053945E-16,0.));
#615=DIRECTION('',(0.,0.,-1.));
#616=DIRECTION('',(0.,0.,-1.));
#617=DIRECTION('',(1.,1.20466908053945E-16,0.));
#618=DIRECTION('',(0.,0.,-1.));
#619=DIRECTION('',(1.,1.20466908053945E-16,0.));
#620=DIRECTION('',(5.42101086242752E-17,6.53052417123493E-33,-1.));
#621=DIRECTION('',(0.,1.,0.));
#622=DIRECTION('',(0.,0.,1.));
#623=DIRECTION('',(0.,0.,-1.));
#624=DIRECTION('',(0.,0.,-1.));
#625=DIRECTION('',(1.,0.,0.));
#626=DIRECTION('',(0.,0.,-1.));
#627=DIRECTION('',(0.,0.,-1.));
#628=DIRECTION('',(-1.,0.,2.47817639425258E-16));
#629=DIRECTION('',(1.,0.,0.));
#630=DIRECTION('',(0.,0.,-1.));
#631=DIRECTION('',(0.,-1.,0.));
#632=DIRECTION('',(1.,0.,0.));
#633=DIRECTION('',(0.,0.,-1.));
#634=DIRECTION('',(0.,-1.,0.));
#635=DIRECTION('',(0.,0.,1.));
#636=DIRECTION('',(1.,0.,0.));
#637=DIRECTION('',(0.,1.,0.));
#638=DIRECTION('',(0.,0.,1.));
#639=DIRECTION('',(0.,0.,-1.));
#640=DIRECTION('',(-1.,0.,2.47817639425258E-16));
#641=DIRECTION('',(0.,0.,-1.));
#642=DIRECTION('',(0.,0.,-1.));
#643=DIRECTION('',(1.,0.,0.));
#644=DIRECTION('',(0.,0.,-1.));
#645=DIRECTION('',(1.,2.4389785250992E-16,0.));
#646=DIRECTION('',(-2.4389785250992E-16,1.,0.));
#647=DIRECTION('',(0.,0.,-1.));
#648=DIRECTION('',(2.4389785250992E-16,-1.,0.));
#649=DIRECTION('',(0.,0.,-1.));
#650=DIRECTION('',(2.4389785250992E-16,-1.,0.));
#651=DIRECTION('',(2.4389785250992E-16,-1.,0.));
#652=DIRECTION('',(-1.,-2.4389785250992E-16,0.));
#653=DIRECTION('',(2.4389785250992E-16,-1.,0.));
#654=DIRECTION('',(0.,0.,-1.));
#655=DIRECTION('',(-2.4389785250992E-16,1.,0.));
#656=DIRECTION('',(0.,0.,-1.));
#657=DIRECTION('',(-2.4389785250992E-16,1.,0.));
#658=DIRECTION('',(-2.4389785250992E-16,1.,0.));
#659=DIRECTION('',(0.,0.,1.));
#660=DIRECTION('',(1.,0.,0.));
#661=DIRECTION('',(0.,0.,-1.));
#662=DIRECTION('',(-1.,0.,0.));
#663=DIRECTION('',(0.,-1.,0.));
#664=DIRECTION('',(0.,-1.,0.));
#665=DIRECTION('',(-1.,0.,0.));
#666=DIRECTION('',(0.,0.,1.));
#667=DIRECTION('',(0.,-1.,0.));
#668=DIRECTION('',(0.,0.,-1.));
#669=DIRECTION('',(-1.,0.,0.));
#670=DIRECTION('',(0.,-1.,0.));
#671=DIRECTION('',(-1.,0.,-5.42101086242752E-17));
#672=DIRECTION('',(-5.42101086242752E-17,0.,1.));
#673=DIRECTION('',(-2.47817639425258E-16,0.,-1.));
#674=DIRECTION('',(-1.,0.,2.47817639425258E-16));
#675=DIRECTION('',(0.,1.,0.));
#676=DIRECTION('',(0.,1.,0.));
#677=DIRECTION('',(1.,0.,0.));
#678=DIRECTION('',(0.,0.,-1.));
#679=DIRECTION('',(1.,0.,0.));
#680=DIRECTION('',(0.,0.,-1.));
#681=DIRECTION('',(0.,0.,1.));
#682=DIRECTION('',(1.,0.,0.));
#683=DIRECTION('',(1.,2.4389785250992E-16,0.));
#684=DIRECTION('',(2.4389785250992E-16,-1.,0.));
#685=DIRECTION('',(1.,2.4389785250992E-16,0.));
#686=DIRECTION('',(2.4389785250992E-16,-1.,0.));
#687=DIRECTION('',(1.,2.4389785250992E-16,0.));
#688=DIRECTION('',(-0.707106781186548,-1.72461825426601E-16,0.707106781186548));
#689=DIRECTION('',(0.,0.,-1.));
#690=DIRECTION('',(2.4389785250992E-16,-1.,0.));
#691=DIRECTION('',(1.,2.4389785250992E-16,0.));
#692=DIRECTION('',(-0.707106781186548,-1.72461825426601E-16,0.707106781186548));
#693=DIRECTION('',(0.,0.,-1.));
#694=DIRECTION('',(-1.,-2.4389785250992E-16,0.));
#695=DIRECTION('',(2.4389785250992E-16,-1.,0.));
#696=DIRECTION('',(-2.4389785250992E-16,1.,0.));
#697=DIRECTION('',(-0.707106781186548,-1.72461825426601E-16,-0.707106781186548));
#698=DIRECTION('',(-0.707106781186548,0.,0.707106781186548));
#699=DIRECTION('',(0.,0.,1.));
#700=DIRECTION('',(1.,0.,0.));
#701=DIRECTION('',(-1.,-2.4389785250992E-16,0.));
#702=DIRECTION('',(-1.,-2.4389785250992E-16,0.));
#703=DIRECTION('',(-2.4389785250992E-16,1.,0.));
#704=DIRECTION('',(-1.,-2.4389785250992E-16,0.));
#705=DIRECTION('',(0.707106781186548,1.72461825426601E-16,0.707106781186548));
#706=DIRECTION('',(-2.4389785250992E-16,1.,0.));
#707=DIRECTION('',(-1.,-2.4389785250992E-16,0.));
#708=DIRECTION('',(0.707106781186548,1.72461825426601E-16,0.707106781186548));
#709=DIRECTION('',(-0.707106781186548,-1.72461825426601E-16,0.707106781186548));
#710=DIRECTION('',(0.707106781186548,0.,0.707106781186548));
#711=CARTESIAN_POINT('',(0.,0.,0.));
#712=CARTESIAN_POINT('',(-0.0467,-9.81688856352431E-19,0.012));
#713=CARTESIAN_POINT('',(-0.0467,-0.0125,0.0195));
#714=CARTESIAN_POINT('',(-0.0467,-0.0125,0.021));
#715=CARTESIAN_POINT('',(-0.0467,-0.0125,0.0195));
#716=CARTESIAN_POINT('',(-0.0467,-0.0125,0.0195));
#717=CARTESIAN_POINT('',(-0.0467,0.0125,0.0195));
#718=CARTESIAN_POINT('',(-0.0467,0.0125,0.0195));
#719=CARTESIAN_POINT('',(-0.0467,0.0125,0.021));
#720=CARTESIAN_POINT('',(-0.0467,-1.36887669721193E-18,0.021));
#721=CARTESIAN_POINT('',(-0.005,0.,0.0225));
#722=CARTESIAN_POINT('',(-0.005,0.02845,0.0225));
#723=CARTESIAN_POINT('',(-0.0482,0.02845,0.0225));
#724=CARTESIAN_POINT('',(0.0233,0.02845,0.0225));
#725=CARTESIAN_POINT('',(0.0233,0.00495,0.0225));
#726=CARTESIAN_POINT('',(0.0233,0.02995,0.0225));
#727=CARTESIAN_POINT('',(-0.005,0.02995,0.0225));
#728=CARTESIAN_POINT('',(-0.0497,0.02995,0.0225));
#729=CARTESIAN_POINT('',(-0.0497,0.,0.0225));
#730=CARTESIAN_POINT('',(-0.0497,-0.02995,0.0225));
#731=CARTESIAN_POINT('',(-0.005,-0.02995,0.0225));
#732=CARTESIAN_POINT('',(0.0397,-0.02995,0.0225));
#733=CARTESIAN_POINT('',(0.0397,1.7347234759768E-18,0.0225));
#734=CARTESIAN_POINT('',(0.0397,0.02995,0.0225));
#735=CARTESIAN_POINT('',(-0.005,0.02995,0.0225));
#736=CARTESIAN_POINT('',(0.0373,0.02995,0.0225));
#737=CARTESIAN_POINT('',(0.0373,0.00495,0.0225));
#738=CARTESIAN_POINT('',(0.0373,0.02845,0.0225));
#739=CARTESIAN_POINT('',(-0.005,0.02845,0.0225));
#740=CARTESIAN_POINT('',(0.0382,0.02845,0.0225));
#741=CARTESIAN_POINT('',(0.0382,1.04083408558608E-17,0.0225));
#742=CARTESIAN_POINT('',(0.0382,-0.02845,0.0225));
#743=CARTESIAN_POINT('',(-0.005,-0.02845,0.0225));
#744=CARTESIAN_POINT('',(-0.0482,-0.02845,0.0225));
#745=CARTESIAN_POINT('',(-0.0482,0.,0.0225));
#746=CARTESIAN_POINT('',(-0.005,-0.02995,0.0015));
#747=CARTESIAN_POINT('',(-0.005,-0.02995,0.));
#748=CARTESIAN_POINT('',(-0.0497,-0.02995,0.));
#749=CARTESIAN_POINT('',(0.0397,-0.02995,0.));
#750=CARTESIAN_POINT('',(0.0397,-0.02995,0.0015));
#751=CARTESIAN_POINT('',(-0.0497,-0.02995,0.0015));
#752=CARTESIAN_POINT('',(-0.005,-0.02995,0.01525));
#753=CARTESIAN_POINT('',(-0.012,-0.02995,0.01525));
#754=CARTESIAN_POINT('',(0.002,-0.02995,0.01525));
#755=CARTESIAN_POINT('',(0.002,-0.02995,0.01125));
#756=CARTESIAN_POINT('',(0.002,-0.02995,0.00725));
#757=CARTESIAN_POINT('',(-0.005,-0.02995,0.00725));
#758=CARTESIAN_POINT('',(-0.012,-0.02995,0.00725));
#759=CARTESIAN_POINT('',(-0.012,-0.02995,0.01125));
#760=CARTESIAN_POINT('',(-0.005,-0.02845,0.0225));
#761=CARTESIAN_POINT('',(-0.005,-0.02845,0.0015));
#762=CARTESIAN_POINT('',(0.0382,-0.02845,0.0015));
#763=CARTESIAN_POINT('',(-0.0482,-0.02845,0.0015));
#764=CARTESIAN_POINT('',(-0.0482,-0.02845,0.0225));
#765=CARTESIAN_POINT('',(0.0382,-0.02845,0.0225));
#766=CARTESIAN_POINT('',(-0.005,-0.02845,0.01525));
#767=CARTESIAN_POINT('',(-0.012,-0.02845,0.01525));
#768=CARTESIAN_POINT('',(0.002,-0.02845,0.01525));
#769=CARTESIAN_POINT('',(-0.012,-0.02845,0.0225));
#770=CARTESIAN_POINT('',(-0.012,-0.02845,0.00725));
#771=CARTESIAN_POINT('',(-0.005,-0.02845,0.00725));
#772=CARTESIAN_POINT('',(0.002,-0.02845,0.00725));
#773=CARTESIAN_POINT('',(0.002,-0.02845,0.0225));
#774=CARTESIAN_POINT('',(-0.005,0.02995,0.0015));
#775=CARTESIAN_POINT('',(0.0373,0.02995,0.0185));
#776=CARTESIAN_POINT('',(0.0373,0.02995,0.0145));
#777=CARTESIAN_POINT('',(0.0397,0.02995,0.0015));
#778=CARTESIAN_POINT('',(0.0397,0.02995,0.));
#779=CARTESIAN_POINT('',(-0.005,0.02995,0.));
#780=CARTESIAN_POINT('',(-0.0497,0.02995,0.));
#781=CARTESIAN_POINT('',(-0.0497,0.02995,0.0015));
#782=CARTESIAN_POINT('',(0.0233,0.02995,0.0185));
#783=CARTESIAN_POINT('',(0.0233,0.02995,0.0145));
#784=CARTESIAN_POINT('',(0.0303,0.02995,0.0145));
#785=CARTESIAN_POINT('',(-0.0497,0.,0.0015));
#786=CARTESIAN_POINT('',(-0.0497,0.,0.));
#787=CARTESIAN_POINT('',(0.0397,1.7347234759768E-18,0.0015));
#788=CARTESIAN_POINT('',(0.0397,1.7347234759768E-18,0.));
#789=CARTESIAN_POINT('',(-0.005,0.,0.));
#790=CARTESIAN_POINT('',(-0.005,0.02845,0.0225));
#791=CARTESIAN_POINT('',(0.0373,0.02845,0.0225));
#792=CARTESIAN_POINT('',(0.0373,0.02845,0.0145));
#793=CARTESIAN_POINT('',(-0.005,0.02845,0.0145));
#794=CARTESIAN_POINT('',(0.0233,0.02845,0.0145));
#795=CARTESIAN_POINT('',(0.0233,0.02845,0.0225));
#796=CARTESIAN_POINT('',(-0.0482,0.02845,0.0225));
#797=CARTESIAN_POINT('',(-0.0482,0.02845,0.0015));
#798=CARTESIAN_POINT('',(-0.005,0.02845,0.0015));
#799=CARTESIAN_POINT('',(0.0382,0.02845,0.0015));
#800=CARTESIAN_POINT('',(0.0382,0.02845,0.0225));
#801=CARTESIAN_POINT('',(0.0382,1.04083408558608E-17,0.0225));
#802=CARTESIAN_POINT('',(0.0382,0.0125,0.0195));
#803=CARTESIAN_POINT('',(0.0382,0.0125,0.021));
#804=CARTESIAN_POINT('',(0.0382,0.0125,0.018));
#805=CARTESIAN_POINT('',(0.0382,8.67361737988404E-18,0.021));
#806=CARTESIAN_POINT('',(0.0382,-0.0125,0.021));
#807=CARTESIAN_POINT('',(0.0382,-0.0125,0.0195));
#808=CARTESIAN_POINT('',(0.0382,-0.0125,0.018));
#809=CARTESIAN_POINT('',(0.0382,8.67361737988404E-18,0.018));
#810=CARTESIAN_POINT('',(0.0382,1.04083408558608E-17,0.0015));
#811=CARTESIAN_POINT('',(-0.0482,0.,0.0225));
#812=CARTESIAN_POINT('',(-0.0482,-0.0125,0.0195));
#813=CARTESIAN_POINT('',(-0.0482,-0.0125,0.021));
#814=CARTESIAN_POINT('',(-0.0482,-0.0125,0.018));
#815=CARTESIAN_POINT('',(-0.0482,-1.7347234759768E-18,0.021));
#816=CARTESIAN_POINT('',(-0.0482,0.0125,0.021));
#817=CARTESIAN_POINT('',(-0.0482,0.0125,0.0195));
#818=CARTESIAN_POINT('',(-0.0482,0.0125,0.018));
#819=CARTESIAN_POINT('',(-0.0482,-1.7347234759768E-18,0.018));
#820=CARTESIAN_POINT('',(-0.0482,0.,0.0015));
#821=CARTESIAN_POINT('',(-0.005,0.,0.0015));
#822=CARTESIAN_POINT('',(-0.005,-0.00495,0.01525));
#823=CARTESIAN_POINT('',(0.002,-0.00495,0.01525));
#824=CARTESIAN_POINT('',(-0.012,-0.00495,0.01525));
#825=CARTESIAN_POINT('',(-0.012,-0.00495,0.01125));
#826=CARTESIAN_POINT('',(-0.012,-0.00495,0.00725));
#827=CARTESIAN_POINT('',(-0.005,-0.00495,0.00725));
#828=CARTESIAN_POINT('',(0.002,-0.00495,0.00725));
#829=CARTESIAN_POINT('',(0.002,-0.00495,0.01125));
#830=CARTESIAN_POINT('',(0.0303,0.00495,0.0145));
#831=CARTESIAN_POINT('',(0.0373,0.00495,0.0145));
#832=CARTESIAN_POINT('',(0.0233,0.00495,0.0145));
#833=CARTESIAN_POINT('',(0.0373,0.00495,0.0185));
#834=CARTESIAN_POINT('',(0.0233,0.00495,0.0185));
#835=CARTESIAN_POINT('',(0.0367,8.30777060111915E-18,0.021));
#836=CARTESIAN_POINT('',(0.0367,0.0125,0.021));
#837=CARTESIAN_POINT('',(0.0367,0.0125,0.021));
#838=CARTESIAN_POINT('',(0.0367,8.30777060111915E-18,0.021));
#839=CARTESIAN_POINT('',(0.0367,-0.0125,0.021));
#840=CARTESIAN_POINT('',(0.0367,-0.0125,0.021));
#841=CARTESIAN_POINT('',(0.0367,0.0125,0.0195));
#842=CARTESIAN_POINT('',(0.03745,0.0125,0.01875));
#843=CARTESIAN_POINT('',(0.0367,0.0125,0.0195));
#844=CARTESIAN_POINT('',(0.0367,0.0125,0.0195));
#845=CARTESIAN_POINT('',(0.0367,-0.0125,0.0195));
#846=CARTESIAN_POINT('',(0.03745,-0.0125,0.01875));
#847=CARTESIAN_POINT('',(0.0367,-0.0125,0.0195));
#848=CARTESIAN_POINT('',(0.0367,-0.0125,0.0195));
#849=CARTESIAN_POINT('',(0.0367,5.48160423516046E-18,0.012));
#850=CARTESIAN_POINT('',(0.0367,-0.0125,0.0195));
#851=CARTESIAN_POINT('',(0.03745,-0.0125,0.01875));
#852=CARTESIAN_POINT('',(-0.0467,-1.36887669721193E-18,0.021));
#853=CARTESIAN_POINT('',(-0.0467,-0.0125,0.021));
#854=CARTESIAN_POINT('',(-0.0467,0.0125,0.021));
#855=CARTESIAN_POINT('',(-0.0467,-0.0125,0.0195));
#856=CARTESIAN_POINT('',(-0.04745,-0.0125,0.01875));
#857=CARTESIAN_POINT('',(-0.0467,0.0125,0.0195));
#858=CARTESIAN_POINT('',(-0.04745,0.0125,0.01875));
#859=CARTESIAN_POINT('',(-0.04745,-0.0125,0.01875));
#860=MECHANICAL_DESIGN_GEOMETRIC_PRESENTATION_REPRESENTATION('',(#541),
#861);
#861=(
GEOMETRIC_REPRESENTATION_CONTEXT(3)
GLOBAL_UNCERTAINTY_ASSIGNED_CONTEXT((#862))
GLOBAL_UNIT_ASSIGNED_CONTEXT((#865,#864,#863))
REPRESENTATION_CONTEXT('Part 1','TOP_LEVEL_ASSEMBLY_PART')
);
#862=UNCERTAINTY_MEASURE_WITH_UNIT(LENGTH_MEASURE(1.E-8),#865,
'DISTANCE_ACCURACY_VALUE','Maximum Tolerance applied to model');
#863=(
NAMED_UNIT(*)
SI_UNIT($,.STERADIAN.)
SOLID_ANGLE_UNIT()
);
#864=(
NAMED_UNIT(*)
PLANE_ANGLE_UNIT()
SI_UNIT($,.RADIAN.)
);
#865=(
LENGTH_UNIT()
NAMED_UNIT(*)
SI_UNIT($,.METRE.)
);
#866=PRODUCT_DEFINITION_SHAPE('','',#867);
#867=PRODUCT_DEFINITION('','',#869,#868);
#868=PRODUCT_DEFINITION_CONTEXT('',#875,'design');
#869=PRODUCT_DEFINITION_FORMATION_WITH_SPECIFIED_SOURCE('','',#871,
 .NOT_KNOWN.);
#870=PRODUCT_RELATED_PRODUCT_CATEGORY('','',(#871));
#871=PRODUCT('Part 1','Part 1','Part 1',(#873));
#872=PRODUCT_CATEGORY('','');
#873=PRODUCT_CONTEXT('',#875,'mechanical');
#874=APPLICATION_PROTOCOL_DEFINITION('international standard',
'ap242_managed_model_based_3d_engineering',2020,#875);
#875=APPLICATION_CONTEXT('managed model based 3d engineering');
ENDSEC;
END-ISO-10303-21;
